<svg xmlns="http://www.w3.org/2000/svg" height="254" width="254" preserveAspectRatio="xMidYMid" viewBox="0 0 25400 25400" style="stroke-linejoin:round;stroke-width:30"><style>  .a{fill:rgb(255,255,255);}</style><path d="m12715 1038c6624 0 11684 5059 11684 11683s-5060 11684-11684 11684-11683-5060-11683-11684 5059-11683 11683-11683zm-11683 0zm23368 23368z" fill="#2ba6cb"/><path d="m16827 12738c2323 0 4098 1776 4098 4101s-1775 4101-4098 4101-4097-1776-4097-4101 1774-4101 4097-4101zm-4097 0zm8196 8203z" class="a"/><path d="m8632 4550c2323 0 4098 1772 4098 4093s-1775 4094-4098 4094-4097-1773-4097-4094 1774-4093 4097-4093zm-4097 0zm8196 8188z" class="a"/><path d="m14768 24723h-2050v-8026h4100v8026h-2050z" class="a"/></svg>